<?xml version="1.0" encoding="utf-8"?>
<!-- Generator: Adobe Illustrator 18.0.0, SVG Export Plug-In . SVG Version: 6.00 Build 0)  -->
<!DOCTYPE svg PUBLIC "-//W3C//DTD SVG 1.1//EN" "http://www.w3.org/Graphics/SVG/1.1/DTD/svg11.dtd">
<svg version="1.1" id="Layer_1" xmlns="http://www.w3.org/2000/svg" xmlns:xlink="http://www.w3.org/1999/xlink" x="0px" y="0px"
	 viewBox="0 0 434.5 485.4" enable-background="new 0 0 434.5 485.4" xml:space="preserve">
<g>
	<polygon fill="#E84373" points="328.7,38.2 277.4,56.5 175.7,133.2 75.7,251.2 26.7,339.2 10.7,405.2 35.7,458.2 54.7,472.2 
		79.7,478.2 104.7,478.2 128.7,478.2 150.7,473.2 169.7,473.2 189.7,472.2 217.2,478.2 245.7,478.2 277.4,471.2 312.3,465.2 
		346.7,459.2 363.7,445.2 337.7,424.2 305.7,423.2 260.7,423.2 217.2,423.2 187.2,423.2 160.7,427.2 141.7,419.2 139.7,391.2 
		153.7,370.2 173.7,345.2 193.7,324.2 217.2,307.2 237.5,290.2 258.7,278.2 277.4,264.2 291.7,258.2 302.7,248.2 331.7,228.2 
		363.7,211.2 381.7,187.2 398.7,159.2 412.7,127.2 412.7,97.6 397.7,68.2 379.7,50.2 356.7,38.2 	"/>
	<path fill="#FFFFFF" d="M285.2,57.1c0,0-30.7,13.7-37,22.5s-15.5,33.2-7.6,36.7c7.9,3.5,14.5,25.8,40.2,21.9
		c20.9-3.2,28.9-20.2,33.4-32.9c4.5-12.7,5.2-37.2-6.5-43.2C292.2,54.1,285.2,57.1,285.2,57.1z"/>
	<path fill="#FFFFFF" d="M360,106.8c0,0-30.7,13.7-37,22.5c-6.3,8.9-15.5,33.2-7.6,36.7c7.9,3.5,14.4,19.1,40.1,15.2
		c20.9-3.2,29-13.6,33.5-26.2c4.5-12.7,5.2-37.2-6.5-43.2C366.9,103.8,360,106.8,360,106.8z"/>
	<polygon fill="#E84373" points="237.5,290.2 261.7,311.2 285.7,311.2 333.7,300.7 352.2,300.7 392,300.7 377.7,311.2 361.7,324.2 
		317.3,336.2 285.7,336.2 264.7,336.2 237.5,332.2 201.8,318.4 	"/>
	<path fill="#8E183C" d="M332.6,0h3l9.1,6L341.5,21c0.7,4,2.7,6,6.1,6c3.3,0,7.3-6,11.9-18h6c4.1,0.7,6.1,2.7,6.1,6.1
		c0,4.4-1,8.4-3.1,11.9c2.1,3.9,3.1,6.8,3.1,8.9L389.5,21h9.1c0,3.5-3,12.5-9.1,27c22.1,16.2,33.1,43.2,33.1,80.9
		c-8.7,38.4-22.7,64.3-42,77.9c-24.5,15.1-44.4,29.1-59.9,42c-41.6,27.9-63.6,41.8-66,41.8c0,4.4,7,9.4,21,15.1l59.9-12.1
		c17.5,2.1,27.5,3.1,29.9,3.1c27-2.1,47-3.1,60-3.1l8.9,12.1c0,14-8,21-24,21c-4.3,0-15.3-1-32.9-3c-26.6,16-53.5,24-80.9,24
		c-11.4,0-22.4-2-33.1-6.1c-3.4,2-7.4,3-11.9,3l-3-6c-15,4-23,6-24,6c0-4.4-10-7.4-29.9-8.9c-34,39.6-50.9,65.5-50.9,77.9
		c7.2,6,15.2,8.9,24,8.9c21.3-4,35.2-6,41.8-6c28.4,0,74.4,1,137.9,3c4.1,3.4,20.1,6.5,48,9.1v3c0,19.7-26,32.7-78.1,38.9
		c-19.4,6.1-48.3,11.1-86.8,15.1c-23.9-1.1-35.9-3.1-35.9-6c-3.9,2-6.9,3-9.1,3c-9.5,0-19.5-1-29.9-3c-20,4-39.9,6-59.9,6H80.9
		c-33.5,0-58.5-21-74.9-63c-2.4,0-4.4-4-6-11.9c2.2-38.5,21.2-89.4,56.9-152.8c24-26,42-50,53.9-71.9c2.3,0,9.3-7,21-21
		c27.2-29.9,72.2-67.8,134.8-113.8c13.7-8,21.7-12.1,24-12.1c0-2.1-1-5.1-3-8.9c2-16,5-24,9.1-24h6c4,0.7,6,2.6,6,6V21l-3,6l6,3
		c10,0,15.1-2,15.1-6l-3-6C326.2,6,329.2,0,332.6,0z M179.8,140.7c10,2.6,15.1,5.7,15.1,9.1l-3,14.9h6c7.2-6,15.2-8.9,24-8.9
		l-3-15.1l14.9-3l6,9.1v3l-3,6c18,6.3,27,16.3,27,29.9v15.1c-12.6,19.3-36.5,37.3-71.8,53.9c-38,34.7-57.1,58.7-57.1,71.9
		c-6.8,0-13.8,28.9-21,86.8l-8.9,6c-3.9-2-6.8-3-8.9-3c-3.9,9.2-7.9,14.2-12.1,15.1h-8.9c0-2.1-1-5.1-3-9.1l11.9-14.9l-6-8.9
		c-8.2,4-14.2,6-18,6l-6-9.1v-3c0.7-4,2.6-6,6-6H69l6,3c0-25.6,11-65.5,32.9-119.9c2.1,0,8.1-6.9,18-20.8c-0.6-5.1-7.6-12.1-21-21
		l-18,24c8,0,12.1,2,12.1,6v11.9h-18v-11.9C66,276,53,296.9,42,320.5h6v9.1c-16,13.2-24,30.2-24,50.9c-2,0-3,1-3,3
		c9.9,0,14.9,2,14.9,6v9.1H21v8.9c9.7,43.9,34.7,65.8,74.9,65.8c8.7,0,32.7-3,71.9-8.9l50.9,6l6-3c2.1,0,5.1,1,8.9,3
		c78-9.2,116.9-19.1,116.9-29.9l-21-3c-6.9,2-11,3-12.1,3c-3.3-2-8.3-3-14.9-3c0,8-3,12.1-8.9,12.1h-6.1c-4,0-6-5-6-15.1h-6
		c0,7.9-2,11.9-6,11.9l-15.1-11.9c-2,3.5-3,7.5-3,11.9h-3c-12,0-18-5-18-14.9h-3l-12.1,8.9h-11.9v-6c-23.5,2-40.5,3-50.9,3
		c-16-1.4-24-9.4-24-24v-14.9c10.5-19.5,16.5-29.5,18-30.1l-3-6v-14.9l20.8,3l3.1-6.1c-2.9,0-5.9-3-9.1-8.9v-6c0-4.5,5-7.6,15.1-9.1
		c0.6,4.1,2.5,6.1,6,6.1h6v-3c-4-6.6-6-12.6-6-18v-3l15.1-3l3,11.9h3c2.9,0,9.9-7,21-21l-3-17.9c0.6-4.1,2.5-6.1,6-6.1
		c9.9,5.3,14.9,10.3,14.9,15.1c5-4,9-6,12.1-6l-6-21l6-3h3l11.9,8.9c6.3,0,12.3-3,18-8.9l-3-6v-12.1c6.7,0,14.7,3,24,8.9
		c2-3.9,3-6.8,3-8.9l-3-21h8.9c6.1,0,9.1,4,9.1,12.1h3c4.9-4.1,8.8-6.1,11.9-6.1l-3-20.8h6l12.1,8.9c6.5,0,14.5-8,24-24l-15.1,3
		h-11.9c-30,0-45-13.9-45-41.8v-3.1l3-6h-3c-13,8-24,12.1-32.9,12.1c-28-3.2-42-15.2-42-36.1v-8.9h-3
		C195.8,125.6,179.8,138.5,179.8,140.7z M50.9,344.5h8.9l3,15.1l-8.9,6c-4.9-4-8.8-6-11.9-6v-6C42,350.7,45,347.7,50.9,344.5z
		 M45,428.5h6c2.9,0,5.8,3,8.9,8.9v3c0,4-2,6-6,6h-6c-4,0-6-3-6-8.9C44,433.6,45,430.6,45,428.5z M69,290.6c3.9,2,6.8,3,8.9,3v15.1
		H66c-4.1,0-6.1-2-6.1-6v-6C59.9,292.6,62.9,290.6,69,290.6z M143.9,176.8c4,6.5,6,12.5,6,18l-8.9,6c-6.1,0-9.1-3-9.1-9.1
		c-5.1,0-10,8-14.9,24l14.9,12.1h12.1c0-3.5,12-18.5,35.9-45l-3-6v-9.1c1,0,5-1,11.9-3l-17.9-14.9
		C168.2,149.8,159.2,158.8,143.9,176.8z M227.7,305.6c0,4-2,6-6,6v3c0,2.8,14.9,6.8,44.8,12.1c4-2,7-3,9.1-3c1.2,6,9.2,8.9,24,8.9
		c21.4,0,43.3-7,65.8-21c-20,0-29.9-1-29.9-3l-65.8,11.9C243.4,310.6,229.4,305.6,227.7,305.6z M278.7,66
		c-19.2,15.1-30.2,26.1-32.9,32.9v8.9c0,16,10,24,29.9,24c17.5,0,30.5-14,38.9-42c0-13.9-6.9-20.8-20.8-20.8
		C290.4,67,285.4,66,278.7,66z M284.6,86.8c8,3.1,12.1,6.1,12.1,9.1c0,2.9-3,5.8-9.1,8.9h-11.9V89.8
		C277.8,89.8,280.8,88.8,284.6,86.8z M305.6,53.9c16,0,24,10,24,29.9v9.1l-6,20.8h3c15-9.9,25-14.9,29.9-14.9
		c28,6.4,42,18.4,42,35.9h6l3-21c0-18.4-11-37.4-32.9-56.9C368.1,49,358.1,45,344.7,45h-15.1C314.8,45,306.9,48,305.6,53.9z
		 M323.7,149.8c0,16,11,24,32.9,24h11.9c12-17.8,18-29.8,18-36.1c-3.9-9-7.8-14-11.9-14.9l-21,3c0-4-2-6-6-6h-3
		C330.7,129.8,323.7,139.8,323.7,149.8z M368.5,134.8c4.1,6.5,6.1,11.5,6.1,15.1c-3.9,4-9.9,6-18,6c-2-3.5-3-7.5-3-11.9v-6.1
		L368.5,134.8z"/>
</g>
</svg>
